# xmcd
#
# Track frame offsets: 
#        150
#        10705
#        22652
#        31140
#        41055
#        52592
#        66245
#        81095
#        92310
#        103162
#        115295
#        126962
#        138930
#        149680
#        161360
#        174045
#        193252
#        207437
#        218160
#        233067
#        244382
#        265100
#
# Disc length: 3671 seconds
#
# Revision: 3
# Processed by: cddbd v1.5.2PL0 Copyright (c) Steve Scherf et al.
# Submitted via: ExactAudioCopy v0.90b4
#
DISCID=250e5516
DTITLE=Various Artist - Exclusive Country Stars From The 50's and 60's
DYEAR=1988
DGENRE=Country
TTITLE0=Jim Reeves - He'll Have To Go
TTITLE1=Eddy Arnold - Make The World Go Away
TTITLE2=Skeeter Davis and Babby Bare - A Dear John Letter
TTITLE3=George Hamilton IV - Abilene
TTITLE4=Glen Campbell and Bobbie Gentry - All I Have To Do Is Dream
TTITLE5=Charley Pride - Detroit City
TTITLE6=Slim Whitman - Indian Love Call
TTITLE7=Sonny James - Young Love
TTITLE8=Tennessee Ernie Ford - Sixteen Tons
TTITLE9=Bobby Bare - 500 Miles Away From Home
TTITLE10=Skeeter Davis - The End Of The World
TTITLE11=Glen Campbell - By The Time I Get To Phoenix
TTITLE12=Charlie Rich - There Won't Be Anyone
TTITLE13=Wanda Jackson - Right Or Wrong
TTITLE14=Sonny James - Since I Met You Baby
TTITLE15=Bobbie Gentry - Ode To Billy Joe
TTITLE16=Glen Campbell and Bobbie Gentry - My Elusive Dreams
TTITLE17=Connie Smith - Paper Roses
TTITLE18=Don Gibson - The Streets Of Laredo
TTITLE19=Jim Reeves And Dottie West - Love Is No Excuse
TTITLE20=Hank Snow - El Paso
TTITLE21=Ferlin Husky - Just For You
EXTD=Disc-4
EXTT0=
EXTT1=
EXTT2=
EXTT3=
EXTT4=
EXTT5=
EXTT6=
EXTT7=
EXTT8=
EXTT9=
EXTT10=
EXTT11=
EXTT12=
EXTT13=
EXTT14=
EXTT15=
EXTT16=
EXTT17=
EXTT18=
EXTT19=
EXTT20=
EXTT21=
PLAYORDER=
